<!-- Generated by IcoMoon.io -->
<svg version="1.1" xmlns="http://www.w3.org/2000/svg" width="1024" height="1024" viewBox="0 0 1024 1024">
<title></title>
<g id="icomoon-ignore">
</g>
<path fill="#24292E" d="M696.789 775.296v-47.403l-0.939 0.427c-10.667 5.163-22.272 8.107-34.176 8.661-1.151 0.093-2.492 0.146-3.845 0.146-11.529 0-22.158-3.856-30.667-10.348l0.123 0.090c-6.904-5.364-12.123-12.595-14.928-20.936l-0.091-0.312c-1.599-4.76-2.522-10.242-2.522-15.94 0-4.446 0.562-8.761 1.619-12.877l-0.078 0.358c2.219-9.6 7.595-18.176 15.232-24.277 6.827-5.717 15.147-9.301 23.979-10.325 2.636-0.312 5.689-0.49 8.784-0.49 13.335 0 25.898 3.307 36.913 9.145l-0.428-0.207 1.024 0.555v-47.659l-2.176-0.597c-11.093-3.666-23.862-5.78-37.124-5.78-2.114 0-4.216 0.054-6.305 0.16l0.293-0.012c-14.029 0.362-27.222 3.563-39.149 9.045l0.621-0.256c-12.245 5.632-23.040 13.952-31.531 24.363-12.753 15.998-20.463 36.508-20.463 58.818 0 21.325 7.044 41.005 18.932 56.84l-0.176-0.245c12.587 16.128 30.251 27.52 50.133 32.256 20.949 5.12 42.923 4.352 63.445-2.219l3.499-0.981zM227.669 775.296v-47.403l-0.939 0.427c-10.667 5.163-22.272 8.107-34.176 8.661-1.163 0.095-2.517 0.15-3.884 0.15-11.517 0-22.134-3.857-30.628-10.351l0.122 0.089c-6.902-5.355-12.112-12.591-14.887-20.938l-0.089-0.31c-1.623-4.777-2.56-10.28-2.56-16.001 0-4.424 0.56-8.718 1.614-12.813l-0.078 0.356c2.219-9.6 7.552-18.176 15.232-24.277 6.827-5.717 15.147-9.301 23.979-10.325 2.636-0.312 5.689-0.49 8.784-0.49 13.335 0 25.898 3.307 36.913 9.145l-0.428-0.207 1.024 0.555v-47.659l-2.176-0.597c-11.093-3.666-23.862-5.78-37.124-5.78-2.114 0-4.216 0.054-6.305 0.16l0.293-0.012c-14.030 0.367-27.222 3.567-39.151 9.046l0.623-0.256c-12.558 5.854-23.105 14.092-31.452 24.211l-0.121 0.151c-12.747 16.011-20.452 36.53-20.452 58.848 0 21.307 7.023 40.974 18.88 56.813l-0.177-0.247c12.392 15.804 29.681 27.267 49.559 32.128l0.617 0.128c20.949 5.12 42.88 4.352 63.445-2.219l3.541-0.981zM395.093 735.957l-0.171 40.832 2.987 0.512c9.387 1.749 18.816 2.944 28.331 3.627 8.32 0.811 16.683 0.939 25.045 0.512 7.979-0.597 15.872-2.091 23.509-4.437 8.96-2.56 17.28-6.955 24.363-13.013 6.273-5.398 11.141-12.256 14.095-20.054l0.113-0.34c2.367-5.963 3.739-12.872 3.739-20.101 0-7.516-1.483-14.685-4.174-21.231l0.135 0.372c-2.878-7.032-7.21-12.953-12.653-17.612l-0.062-0.052c-5.232-4.694-11.458-8.403-18.31-10.767l-0.378-0.113-30.805-11.435c-3.704-1.609-6.636-4.416-8.362-7.924l-0.043-0.097c-0.593-1.272-0.939-2.761-0.939-4.331 0-1.838 0.475-3.566 1.308-5.067l-0.027 0.053c1.6-2.592 3.829-4.656 6.479-6.016l0.092-0.043c3.19-1.574 6.898-2.689 10.807-3.142l0.158-0.015c6.528-0.939 13.141-0.896 19.627 0.213 7.68 0.853 15.275 2.176 22.741 4.096l1.621 0.341v-37.675l-2.944-0.64c-6.306-1.603-14.174-3.056-22.187-4.040l-0.981-0.098c-4.727-0.652-10.189-1.025-15.738-1.025-5.19 0-10.305 0.326-15.324 0.958l0.598-0.061c-12.8 1.152-24.96 6.101-35.029 14.080-6.827 5.376-11.989 12.501-14.976 20.651-4.437 12.373-4.48 25.941 0 38.357 2.304 6.187 5.973 11.691 10.752 16.256 4.139 3.968 8.832 7.381 13.952 10.069 6.699 3.584 13.824 6.357 21.205 8.32 2.432 0.725 4.864 1.493 7.253 2.304l3.627 1.323 1.024 0.427c3.584 1.28 6.912 3.328 9.643 5.973 1.92 1.792 3.413 4.011 4.309 6.443 0.288 1.056 0.454 2.267 0.454 3.518 0 1.19-0.15 2.345-0.432 3.447l0.021-0.096c-1.194 3.691-3.723 6.664-7.005 8.41l-0.078 0.038c-3.402 1.777-7.359 3.067-11.542 3.648l-0.192 0.022c-4.011 0.657-8.634 1.033-13.344 1.033-1.715 0-3.418-0.050-5.108-0.148l0.234 0.011c-9.049-0.718-17.182-1.837-25.164-3.383l1.399 0.226c-6.755-1.411-10.873-2.4-14.966-3.452l2.721 0.594zM289.493 778.411h44.8v-177.792h-44.8zM808.405 653.141c7.974-6.535 18.278-10.497 29.506-10.497 14.585 0 27.609 6.683 36.177 17.155l0.066 0.083c6.556 7.976 10.531 18.291 10.531 29.533 0 14.575-6.68 27.59-17.146 36.15l-0.083 0.066-0.725 0.597c-7.792 6.022-17.699 9.653-28.454 9.653-25.826 0-46.763-20.936-46.763-46.763 0-14.434 6.539-27.34 16.817-35.918l0.075-0.061zM743.339 689.579c0.824 51.042 42.395 92.104 93.557 92.104 7.156 0 14.124-0.803 20.82-2.325l-0.627 0.12c42.587-8.273 74.297-45.27 74.297-89.673 0-33.095-17.616-62.076-43.983-78.077l-0.405-0.228c-14.075-8.831-31.183-14.069-49.515-14.069-51.297 0-93.014 41.018-94.142 92.044l-0.002 0.105zM979.669 457.728c0.535 11.828 10.254 21.214 22.165 21.214s21.63-9.386 22.164-21.166l0.002-0.048v-49.28c-0.535-11.828-10.254-21.214-22.165-21.214s-21.63 9.386-22.164 21.166l-0.002 0.048v49.28zM858.325 457.728c0.904 11.553 10.501 20.585 22.208 20.585s21.304-9.032 22.203-20.508l0.005-0.077v-110.464c-0.746-11.67-10.394-20.853-22.187-20.853s-21.44 9.183-22.183 20.788l-0.003 0.065v110.464zM735.189 502.229c0.903 11.53 10.482 20.544 22.165 20.544s21.262-9.014 22.16-20.467l0.005-0.077v-238.976c-0.535-11.828-10.254-21.214-22.165-21.214s-21.63 9.386-22.164 21.166l-0.002 0.048v238.976zM614.101 457.728c0.746 11.67 10.394 20.853 22.187 20.853s21.44-9.183 22.183-20.788l0.003-0.065v-110.464c-0.535-11.828-10.254-21.214-22.165-21.214s-21.63 9.386-22.164 21.166l-0.002 0.048v110.464zM490.411 457.728c1.145 11.328 10.632 20.095 22.165 20.095s21.020-8.767 22.158-20.001l0.008-0.094v-49.28c-0.535-11.828-10.254-21.214-22.165-21.214s-21.63 9.386-22.164 21.166l-0.002 0.048v49.28zM367.957 457.728c0.535 11.828 10.254 21.214 22.165 21.214s21.63-9.386 22.164-21.166l0.002-0.048v-110.464c-0.535-11.828-10.254-21.214-22.165-21.214s-21.63 9.386-22.164 21.166l-0.002 0.048v110.464zM244.779 502.229c0.535 11.828 10.254 21.214 22.165 21.214s21.63-9.386 22.164-21.166l0.002-0.048v-238.976c-0.535-11.828-10.254-21.214-22.165-21.214s-21.63 9.386-22.164 21.166l-0.002 0.048v238.976zM122.709 457.728c1.034 11.433 10.572 20.324 22.187 20.324s21.153-8.891 22.18-20.238l0.006-0.086v-110.464c-0.535-11.828-10.254-21.214-22.165-21.214s-21.63 9.386-22.164 21.166l-0.002 0.048v110.464zM0 457.728c0.903 11.53 10.482 20.544 22.165 20.544s21.262-9.014 22.16-20.467l0.005-0.077v-49.28c-0.535-11.828-10.254-21.214-22.165-21.214s-21.63 9.386-22.164 21.166l-0.002 0.048v49.28z"></path>
</svg>
