<svg width="75" height="84" viewBox="0 0 75 84" fill="none" xmlns="http://www.w3.org/2000/svg">
<rect y="5" width="75" height="75" fill="#3BFFEB"/>
<path d="M36.9023 48.9297H30.2227V67H17.8828V15.8125H38.0273C44.0977 15.8125 48.8438 17.1602 52.2656 19.8555C55.6875 22.5508 57.3984 26.3594 57.3984 31.2812C57.3984 34.8438 56.6719 37.7969 55.2188 40.1406C53.7891 42.4844 51.5391 44.3828 48.4688 45.8359L59.1562 66.4727V67H45.9375L36.9023 48.9297ZM30.2227 39.4023H38.0273C40.3711 39.4023 42.1289 38.793 43.3008 37.5742C44.4961 36.332 45.0938 34.6094 45.0938 32.4062C45.0938 30.2031 44.4961 28.4805 43.3008 27.2383C42.1055 25.9727 40.3477 25.3398 38.0273 25.3398H30.2227V39.4023Z" fill="black"/>
</svg>
